<svg id="visual" viewBox="0 0 1000 450" width="1000" height="450" xmlns="http://www.w3.org/2000/svg" xmlns:xlink="http://www.w3.org/1999/xlink" version="1.1"><rect x="0" y="0" width="1000" height="450" fill="#001220"></rect><defs><linearGradient id="grad1_0" x1="55%" y1="0%" x2="100%" y2="100%"><stop offset="5.555555555555554%" stop-color="#001220" stop-opacity="1"></stop><stop offset="94.44444444444446%" stop-color="#001220" stop-opacity="1"></stop></linearGradient></defs><defs><linearGradient id="grad2_0" x1="0%" y1="0%" x2="45%" y2="100%"><stop offset="5.555555555555554%" stop-color="#001220" stop-opacity="1"></stop><stop offset="94.44444444444446%" stop-color="#001220" stop-opacity="1"></stop></linearGradient></defs><g transform="translate(1000, 0)"><path d="M0 405C-59.2 405.6 -118.4 406.2 -155 374.2C-191.5 342.1 -205.4 277.5 -236.9 236.9C-268.3 196.3 -317.4 179.7 -348.3 144.3C-379.3 108.8 -392.1 54.4 -405 0L0 0Z" fill="#16166a"></path></g><g transform="translate(0, 450)"><path d="M0 -405C47.4 -390 94.8 -375 148.9 -359.4C202.9 -343.8 263.6 -327.5 286.4 -286.4C309.2 -245.3 294.2 -179.3 307.7 -127.4C321.1 -75.6 363.1 -37.8 405 0L0 0Z" fill="#16166a"></path></g></svg>